<svg xmlns="http://www.w3.org/2000/svg" viewBox="0 0 216 72"><defs><style>.cls-1{fill:#ec008c;}.cls-2,.cls-3,.cls-4,.cls-5{fill:none;stroke:#ec008c;stroke-linecap:round;stroke-miterlimit:10;}.cls-2{stroke-width:5px;}.cls-3{stroke-width:3px;}.cls-4{stroke-width:4px;}.cls-5{stroke-width:2px;}</style></defs><title>171007_Attune-10 Rev 01</title><g id="Graphic"><path class="cls-1" d="M57.74,49a2.56,2.56,0,0,1-.88,2.29,4.09,4.09,0,0,1-4.22,0A2.49,2.49,0,0,1,51.76,49a14,14,0,0,1-8.64,2.81A14.6,14.6,0,0,1,28.5,37.24,14.6,14.6,0,0,1,43.12,22.62,14.6,14.6,0,0,1,57.74,37.1Zm-8.47-17.9a8.7,8.7,0,0,0-12.29,0,8.72,8.72,0,0,0,0,12.29,8.68,8.68,0,0,0,12.29,0,8.32,8.32,0,0,0,2.49-5.1V37.16a4.77,4.77,0,0,1,0-.53A8.17,8.17,0,0,0,49.27,31.09Z"/><path class="cls-1" d="M116.95,53.37A15,15,0,0,1,106.78,49a14.1,14.1,0,0,1-4.28-10.2V27.53a3.5,3.5,0,0,1,.88-2.58,3,3,0,0,1,4.22,0,3.41,3.41,0,0,1,.88,2.52V38.78a5,5,0,0,1,0,.53A8.16,8.16,0,0,0,111,44.84a8.38,8.38,0,0,0,6.15,2.55h.12a8.38,8.38,0,0,0,6.15-2.55,8.17,8.17,0,0,0,2.52-5.54,4.77,4.77,0,0,1,0-.53V27.47a3.41,3.41,0,0,1,.88-2.52,3,3,0,0,1,4.22,0,3.5,3.5,0,0,1,.88,2.58V38.84A14.1,14.1,0,0,1,127.58,49a15,15,0,0,1-10.17,4.34Z"/><path class="cls-1" d="M140.77,24.07a15,15,0,0,1,10.17,4.34,14.1,14.1,0,0,1,4.28,10.2V49.91a3.49,3.49,0,0,1-.88,2.58,3,3,0,0,1-4.22,0,3.41,3.41,0,0,1-.88-2.52V38.66a4.77,4.77,0,0,1,0-.53,8.17,8.17,0,0,0-2.52-5.54A8.38,8.38,0,0,0,140.6,30h-.12a8.38,8.38,0,0,0-6.15,2.55,8.16,8.16,0,0,0-2.52,5.54,5,5,0,0,1,0,.53V50a3.41,3.41,0,0,1-.88,2.52,3,3,0,0,1-4.22,0,3.49,3.49,0,0,1-.88-2.58V38.6a14.1,14.1,0,0,1,4.28-10.2,15,15,0,0,1,10.17-4.34Z"/><path class="cls-1" d="M175.86,30.77a8.81,8.81,0,0,0-9.7,1.8,8.68,8.68,0,0,0,0,12.29,8.7,8.7,0,0,0,12.28,0l.06-.06a2.83,2.83,0,0,1,2.08-.85,2.9,2.9,0,0,1,2.11.86,2.83,2.83,0,0,1,.88,2.09,2.88,2.88,0,0,1-.88,2.11l-.06.06a14.62,14.62,0,0,1-24.93-10.37,14.63,14.63,0,0,1,24.93-10.37l0,0a0,0,0,0,0,0,0,2.83,2.83,0,0,1,.85,2.08,2.79,2.79,0,0,1-.85,2.05l-8.38,8.32a2.93,2.93,0,0,1-2.11.85,2.9,2.9,0,0,1-3-3,2.93,2.93,0,0,1,.85-2.11Z"/><line class="cls-2" x1="72.51" y1="18.26" x2="72.51" y2="51.2"/><line class="cls-2" x1="87.44" y1="51.2" x2="87.44" y2="18.26"/><line class="cls-3" x1="66.63" y1="27.83" x2="66.63" y2="37.05"/><line class="cls-3" x1="93.94" y1="27.18" x2="93.94" y2="38.08"/><line class="cls-4" x1="79.97" y1="22.99" x2="79.97" y2="40.99"/><line class="cls-5" x1="98.51" y1="29.92" x2="98.51" y2="35.99"/><line class="cls-5" x1="62.07" y1="29.92" x2="62.07" y2="35.99"/></g></svg>